<svg width="789" height="1238" viewBox="0 0 789 1238" fill="none" xmlns="http://www.w3.org/2000/svg">
<path d="M57.4236 109.1L0 141.256V1217.33L18.3755 1229.96H63.1659L91.8777 1238H198.686L223.952 1223.07H250.367L311.236 1217.33L395.074 1206.99H457.092L477.764 1211.59L506.476 1206.99L534.039 1193.21L550.118 1182.88L578.83 1140.38L591.463 1126.6L597.205 1113.97L653.48 1072.63V1022.1L667.262 991.089L673.004 917.59V909.551L710.904 871.653L759.14 846.388L767.179 836.052L789 823.419V722.358L767.179 664.937L747.655 632.781L732.725 625.891L722.389 596.031L716.646 566.173L722.389 531.72L762.585 491.525L789 444.44V33.3043H772.921L763.734 41.3432H738.467H683.341L667.262 36.7495L600.651 12.6327L571.939 0H545.524L531.742 9.18738V18.3748L524.852 21.82H509.921L481.21 47.0853L445.607 70.0538H439.865L411.153 99.9128L396.223 115.991L385.886 120.584H330.76L323.869 115.991H302.048L260.703 126.327L188.349 109.1L132.074 94.1707L57.4236 109.1Z" fill="#D9D9D9"/>
<path d="M57.4236 109.1L0 141.256V1217.33L18.3755 1229.96H63.1659L91.8777 1238H198.686L223.952 1223.07H250.367L311.236 1217.33L395.074 1206.99H457.092L477.764 1211.59L506.476 1206.99L534.039 1193.21L550.118 1182.88L578.83 1140.38L591.463 1126.6L597.205 1113.97L653.48 1072.63V1022.1L667.262 991.089L673.004 917.59V909.551L710.904 871.653L759.14 846.388L767.179 836.052L789 823.419V722.358L767.179 664.937L747.655 632.781L732.725 625.891L722.389 596.031L716.646 566.173L722.389 531.72L762.585 491.525L789 444.44V33.3043H772.921L763.734 41.3432H738.467H683.341L667.262 36.7495L600.651 12.6327L571.939 0H545.524L531.742 9.18738V18.3748L524.852 21.82H509.921L481.21 47.0853L445.607 70.0538H439.865L411.153 99.9128L396.223 115.991L385.886 120.584H330.76L323.869 115.991H302.048L260.703 126.327L188.349 109.1L132.074 94.1707L57.4236 109.1Z" fill="#FFF5DC"/>
</svg>
