<svg width="50" height="50" viewBox="0 0 50 50" fill="none" xmlns="http://www.w3.org/2000/svg">
<g filter="url(#filter0_d_13_145)">
<rect x="10" y="6" width="30" height="30" rx="15" fill="#FFF5DC" shape-rendering="crispEdges"/>
<rect x="10.5" y="6.5" width="29" height="29" rx="14.5" stroke="#FFF5DC" shape-rendering="crispEdges"/>
<path d="M26.788 18.4C26.788 18.4373 26.5453 18.8013 26.06 19.492C25.5933 20.164 25.36 20.528 25.36 20.584C25.36 20.8453 26.0507 22.0027 27.432 24.056C28.7573 26.0347 29.42 27.1827 29.42 27.5C29.42 27.5933 29.3733 27.64 29.28 27.64C29.0933 27.64 28.7853 27.4627 28.356 27.108C27.9453 26.7533 27.656 26.408 27.488 26.072C27.264 25.624 26.7693 24.7747 26.004 23.524C25.2573 22.2733 24.8467 21.6293 24.772 21.592H24.744C24.6693 21.592 24.5107 21.7787 24.268 22.152C24.044 22.5253 23.7827 22.9733 23.484 23.496C23.204 24 23.008 24.336 22.896 24.504C22.728 24.7467 22.5973 24.9613 22.504 25.148C22.4107 25.316 22.3173 25.5213 22.224 25.764C22.1307 26.0067 22.028 26.2493 21.916 26.492C21.7853 26.7533 21.6827 26.9307 21.608 27.024C21.5333 27.0987 21.44 27.136 21.328 27.136C21.216 27.136 21.1133 27.1267 21.02 27.108C20.74 27.052 20.4787 27.024 20.236 27.024C20.0867 27.024 20.012 26.9867 20.012 26.912C20.012 26.7627 20.236 26.3427 20.684 25.652C21.6733 23.9907 22.5413 22.6373 23.288 21.592C23.6987 21.0133 23.904 20.6213 23.904 20.416C23.904 20.2293 23.6147 19.7253 23.036 18.904C21.0947 16.1787 20.124 14.5453 20.124 14.004C20.124 13.6867 20.1893 13.528 20.32 13.528C20.4507 13.528 20.684 13.7427 21.02 14.172C21.356 14.6013 21.7107 15.1147 22.084 15.712C22.42 16.2907 22.6347 16.6267 22.728 16.72C22.8773 16.832 23.1387 17.1773 23.512 17.756C23.904 18.316 24.1373 18.6893 24.212 18.876C24.3053 19.1747 24.4173 19.324 24.548 19.324C24.6787 19.324 25.5747 18.036 27.236 15.46C27.6467 14.8253 28.0013 14.508 28.3 14.508C28.4307 14.508 28.5333 14.5453 28.608 14.62C28.72 14.7133 28.776 14.788 28.776 14.844C28.776 14.9187 28.6827 15.1147 28.496 15.432C28.384 15.6373 28.216 15.992 27.992 16.496C27.7867 17 27.5627 17.4013 27.32 17.7C26.9653 18.092 26.788 18.3253 26.788 18.4Z" fill="#3D6528"/>
</g>
<defs>
<filter id="filter0_d_13_145" x="0" y="0" width="50" height="50" filterUnits="userSpaceOnUse" color-interpolation-filters="sRGB">
<feFlood flood-opacity="0" result="BackgroundImageFix"/>
<feColorMatrix in="SourceAlpha" type="matrix" values="0 0 0 0 0 0 0 0 0 0 0 0 0 0 0 0 0 0 127 0" result="hardAlpha"/>
<feOffset dy="4"/>
<feGaussianBlur stdDeviation="5"/>
<feComposite in2="hardAlpha" operator="out"/>
<feColorMatrix type="matrix" values="0 0 0 0 0 0 0 0 0 0 0 0 0 0 0 0 0 0 0.25 0"/>
<feBlend mode="normal" in2="BackgroundImageFix" result="effect1_dropShadow_13_145"/>
<feBlend mode="normal" in="SourceGraphic" in2="effect1_dropShadow_13_145" result="shape"/>
</filter>
</defs>
</svg>
